<svg xmlns="http://www.w3.org/2000/svg" width="351" height="100" viewBox="0 0 351 100" fill="none"><path fill-rule="evenodd" clip-rule="evenodd" d="M0.785826 11.5859C0.282092 12.0292 0 12.6538 0 13.3187V30.1838C0 30.8487 0.282092 31.4733 0.785826 31.8965L13.3187 42.8779C13.7419 43.2406 14.2859 43.4421 14.83 43.4421H35.2413C36.0876 43.4421 36.8532 42.9786 37.2764 42.2331L40.46 36.3898H12.0493C10.2359 36.3898 8.72469 35.3017 8.38215 33.8308V24.9449V9.6314C8.72469 8.18065 10.2359 7.07243 12.0493 7.07243H40.46L37.2562 1.22911C36.8532 0.483578 36.0674 0.0201416 35.2211 0.0201416H14.8098C14.2456 0.0201416 13.7016 0.221636 13.2986 0.584325L0.785826 11.5859Z" fill="white"></path><path fill-rule="evenodd" clip-rule="evenodd" d="M151.926 67.1781C151.423 67.6214 151.141 68.246 151.141 68.8908L151.1 74.0893V74.2505L151.08 77.3334V80.1744V80.5573L151.141 85.776C151.141 86.4409 151.423 87.0655 151.926 87.4887L164.459 98.4701C164.882 98.8328 165.427 99.0343 165.971 99.0343H186.382C187.228 99.0343 187.994 98.5708 188.417 97.8253L191.601 91.982H163.19C161.376 91.982 159.865 90.8939 159.523 89.423V80.5371V65.1833C159.865 63.7325 161.376 62.6243 163.19 62.6243H191.601L188.417 56.781C188.014 56.0355 187.228 55.572 186.382 55.572H165.991C165.427 55.572 164.882 55.7735 164.479 56.1362L151.926 67.1781Z" fill="white"></path><path fill-rule="evenodd" clip-rule="evenodd" d="M347.355 0.0201416H343.023V33.8107C342.721 35.2614 341.371 36.3696 339.759 36.3696H316.345C314.733 36.3696 313.383 35.2816 313.081 33.8107V0.0201416H308.81C307.057 0.0201416 305.646 1.4306 305.646 3.1836V30.2039C305.646 30.8286 305.888 31.4129 306.331 31.8562L317.353 42.7369C317.796 43.16 318.36 43.4018 318.985 43.4018H323.398H337.099C337.704 43.4018 338.288 43.16 338.731 42.7369L349.753 31.836C350.196 31.4129 350.438 30.8084 350.438 30.2039L350.499 3.1836C350.519 1.4306 349.108 0.0201416 347.355 0.0201416Z" fill="white"></path><path fill-rule="evenodd" clip-rule="evenodd" d="M91.2969 18.5173L91.2767 13.218C91.2767 12.6135 91.0349 12.0292 90.5917 11.5859L79.5699 0.705228C79.1468 0.282091 78.5625 0.0402985 77.958 0.0402985C77.958 0.0402985 64.1557 0.0402985 64.1154 0.0402985H59.34C58.7355 0.0402985 58.1511 0.282091 57.728 0.705228L46.7063 11.5859C46.263 12.009 46.0212 12.5934 46.0212 13.218L45.9608 18.5173V24.9651L46.0212 30.2644C46.0212 30.8689 46.263 31.4532 46.7063 31.8965L57.728 42.7772C58.1511 43.2003 58.7355 43.4421 59.34 43.4421H77.9781C78.5826 43.4421 79.167 43.2003 79.5901 42.7772L90.6118 31.8965C91.0551 31.4734 91.2969 30.889 91.2969 30.2644L91.317 24.9651V18.5173H91.2969ZM83.8215 33.851C83.5192 35.3017 82.1692 36.41 80.5774 36.41H77.8572H59.3803H56.6601C55.0481 36.41 53.7183 35.3219 53.416 33.851V24.9449V18.4971V9.61126C53.7183 8.1605 55.0683 7.05229 56.6601 7.05229H77.8572H80.5774C82.1894 7.05229 83.5394 8.14035 83.8215 9.61126V18.5173V24.9651V33.851Z" fill="white"></path><path fill-rule="evenodd" clip-rule="evenodd" d="M245.601 74.1095L245.581 68.8102C245.581 68.2057 245.339 67.6214 244.896 67.1781L233.874 56.2974C233.451 55.8743 232.867 55.6325 232.262 55.6325C232.262 55.6325 218.46 55.6325 218.419 55.6325H213.644C213.04 55.6325 212.455 55.8743 212.032 56.2974L201.01 67.1781C200.567 67.6012 200.325 68.1855 200.325 68.8102L200.265 74.1095V80.5573L200.285 85.8566C200.285 86.461 200.527 87.0454 200.97 87.4887L211.992 98.3693C212.415 98.7925 212.999 99.0343 213.604 99.0343H232.242C232.846 99.0343 233.431 98.7925 233.854 98.3693L244.876 87.4887C245.319 87.0655 245.561 86.4812 245.561 85.8566L245.581 80.5573V74.1095H245.601ZM238.146 89.4633C237.843 90.9141 236.493 92.0223 234.902 92.0223H232.181H213.704H210.964C209.352 92.0223 208.022 90.9342 207.72 89.4633V80.5573V74.1095V65.2034C208.022 63.7527 209.372 62.6445 210.964 62.6445H232.161H234.881C236.493 62.6445 237.843 63.7325 238.126 65.2034V74.1095V80.5573V89.4633H238.146Z" fill="white"></path><path fill-rule="evenodd" clip-rule="evenodd" d="M245.722 2.33733C245.722 1.06792 244.694 0.0402985 243.425 0.0402985H204.839C203.932 0.0402985 203.126 0.564183 202.743 1.37016L200.104 7.07244H217.875C219.407 7.07244 220.696 8.1605 220.978 9.61126L220.938 43.3615H228.293L227.95 7.29408H245.742V2.33733H245.722Z" fill="white"></path><path d="M314.351 65.2034C314.693 63.7527 316.265 62.6445 318.139 62.6445H350.458V57.9093C350.458 56.6399 349.431 55.5922 348.161 55.5922H320.98C320.436 55.5922 319.912 55.7937 319.489 56.1362L306.432 67.1378C305.908 67.5811 305.626 68.2057 305.606 68.8908V74.0893V80.5371V85.6752C305.606 86.3401 305.908 86.9849 306.432 87.4282L319.489 98.4701C319.912 98.8328 320.436 99.0141 320.98 99.0141H348.161C349.431 99.0141 350.458 97.9865 350.458 96.6969V91.9618H318.139C316.265 91.9618 314.693 90.8738 314.351 89.4028V81.6453H338.49C339.376 81.6453 340.182 81.1416 340.565 80.3558L343.587 74.1901H314.351V74.049V65.2034Z" fill="white"></path><path fill-rule="evenodd" clip-rule="evenodd" d="M151.1 12.9964C151.1 12.3919 151.08 12.2105 151.503 11.7672L162.182 0.725378C162.626 0.261942 163.23 0 163.875 0H191.661C192.568 0 193.414 0.523884 193.797 1.37016L195.973 7.17318H161.215C159.644 7.17318 158.354 8.2814 158.052 9.77246V13.8426C158.052 14.5076 158.858 15.1322 159.583 15.3337L194.422 22.9905L194.744 23.1315C195.57 23.4539 196.235 24.2599 196.235 25.3076V30.1435C196.235 30.748 195.993 31.3323 195.57 31.7756L184.891 42.6563C184.448 43.1197 183.843 43.3816 183.198 43.3816H153.357C152.833 43.3816 152.35 43.2204 151.947 42.9182C151.483 42.5757 151.221 42.0115 151.201 41.4272L151.1 36.3898H185.858C187.43 36.3898 188.719 35.2816 189.021 33.7905V30.5062C189.021 29.2569 188.155 28.1689 186.926 27.8868L154.465 20.5121C152.47 19.968 151.161 19.3636 151.1 17.2882C151.1 17.2882 151.1 14.4068 151.1 14.165V12.9964Z" fill="white"></path><path d="M288.942 30.0629C293.798 30.1032 297.647 26.1539 297.647 21.318C297.647 18.8195 297.647 13.359 297.647 13.359C297.667 12.6538 297.365 11.9486 296.821 11.5053L283.703 0.564175C283.28 0.221636 282.756 0.0201416 282.233 0.0201416H254.991C254.084 0.0201416 253.439 0.241785 253.076 1.06791V43.4018H260.673V30.1435H277.518L286.988 42.2533C287.814 43.5025 289.305 43.4018 290.796 43.4018H297.667L286.585 30.0427L288.942 30.0629ZM260.673 22.8897V7.05228H285.094C286.464 7.05228 287.673 7.61646 288.378 8.46274C288.761 8.92617 288.962 9.51051 288.962 10.115V20.7136C288.902 21.2375 288.58 21.7009 288.136 22.0636C287.492 22.6076 286.665 22.8696 285.819 22.8696L260.673 22.8897Z" fill="white"></path><path d="M140.441 0.0201416H136.17V34.0122C136.17 35.3017 135.122 36.3293 133.852 36.3293H132.946C132.16 36.3293 131.314 35.6241 130.689 34.3547L115.234 0.906715C114.972 0.362681 114.428 0.0201416 113.824 0.0201416H107.154C106.369 0.0201416 105.623 0.342532 105.079 0.906715L98.9335 7.61646C98.6514 7.89855 98.4902 8.28139 98.4902 8.68438V40.2585C98.4902 41.9913 99.9007 43.4018 101.634 43.4018H105.905V9.40976C105.905 8.1202 106.953 7.09258 108.222 7.09258H109.129C109.915 7.09258 110.761 7.79781 111.386 9.06722L126.84 42.4951C127.102 43.0391 127.646 43.3816 128.251 43.3816H134.92C135.706 43.3816 136.452 43.0592 136.996 42.4951L143.121 36.1681C143.403 35.8861 143.564 35.5032 143.564 35.1002V3.16345C143.605 1.4306 142.194 0.0201416 140.441 0.0201416Z" fill="white"></path><path d="M297.647 69.2535V68.2661C297.647 67.5811 297.324 66.9363 296.801 66.493L295.813 65.6266C295.813 65.6266 282.736 55.6325 282.212 55.6325H255.192C253.923 55.6325 252.895 56.6601 252.895 57.9295V96.7574C252.895 98.0268 253.923 99.0544 255.192 99.0544H282.233C282.756 99.0544 283.28 98.8731 283.683 98.5305L296.78 87.1461C297.304 86.7028 297.627 86.0581 297.627 85.373L297.647 72.9005V69.3341V69.2535ZM289.023 89.4633C288.66 90.9141 287.048 92.0223 285.094 92.0223H260.532V62.6445H285.255C287.189 62.6445 288.66 63.4706 289.023 64.9213V89.4633Z" fill="white"></path></svg>